<svg xmlns="http://www.w3.org/2000/svg" xmlns:xlink="http://www.w3.org/1999/xlink" viewBox="0 0 287.88 374.84"><defs><style>.cls-1{fill:url(#linear-gradient);}.cls-2,.cls-7{fill:#ecc05f;}.cls-3{fill:#e4805f;}.cls-4{fill:none;stroke:#ca4848;stroke-miterlimit:10;stroke-width:5px;}.cls-5,.cls-6{fill:#ca4848;}.cls-6{font-size:72px;letter-spacing:0.23em;}.cls-6,.cls-7{font-family:Ailerons-Regular, Ailerons;}.cls-7{font-size:24px;}</style><linearGradient id="linear-gradient" x1="140" y1="2.71" x2="136.26" y2="373.13" gradientUnits="userSpaceOnUse"><stop offset="0.61" stop-color="#f7941d"/><stop offset="0.75" stop-color="#f5b942" stop-opacity="0.66"/><stop offset="1" stop-color="#f0ff8a" stop-opacity="0"/></linearGradient></defs><g id="Layer_2" data-name="Layer 2"><g id="Layer_4" data-name="Layer 4"><rect class="cls-1" x="4.75" width="266.82" height="367.76"/></g><g id="colores"><path class="cls-2" d="M35,180.43,91.58,87.18l9.17,9.53,37.42-74.12L170.64,84l10.58-12.35,71.31,117.68s-58.79,36-120.19,28.5c0,0-100.06-10.89-107.12-21.24Z"/><path class="cls-3" d="M25.22,196.59s117.9,51.07,227.31-4.23c0,0,14.33,16.46,13.5,26.55a8.92,8.92,0,0,1-.44,2.09c-3.42,9.71-36.48,34.14-126.78,38.16h0S51.36,254.45,12.53,225.4C12.53,225.4,22,195.3,25.22,196.59Z"/></g><g id="trazos"><path class="cls-4" d="M138.17,22.59,100.75,96.71l-9.17-9.53L25.22,196.59s119.65,51.17,228.71-4.94l-72.71-120L170.64,84Z"/><path class="cls-4" d="M25.22,196.59S5.81,223.76,15,228.71c0,0,127.41,70.58,249.18-3.18,0,0,7.05-9.88-10.24-33.88"/><path class="cls-4" d="M37.93,221s12.35,10.24,71.29,18.35"/><ellipse class="cls-5" cx="80.22" cy="147.85" rx="17.35" ry="19.44"/><ellipse class="cls-5" cx="139.58" cy="180.43" rx="19.94" ry="22.31"/><circle class="cls-5" cx="115.13" cy="82.65" r="19.94"/><ellipse class="cls-5" cx="225.73" cy="165.13" rx="20.54" ry="21.83"/><ellipse class="cls-5" cx="169.87" cy="128.41" rx="15.24" ry="18.29"/></g><g id="main_titles" data-name="main titles"><text class="cls-6" transform="translate(6.8 319.05)">AVILA</text><text class="cls-7" transform="translate(104.49 349.99)">PIZZA</text></g></g></svg>